<?xml version="1.0" encoding="UTF-8" standalone="no"?>
<!DOCTYPE svg PUBLIC "-//W3C//DTD SVG 1.1//EN"
 "http://www.w3.org/Graphics/SVG/1.1/DTD/svg11.dtd">
<!-- Generated by graphviz version 2.40.1 (20161225.0304)
 -->
<!-- Title: G Pages: 1 -->
<svg width="296pt" height="308pt"
 viewBox="0.00 0.00 296.00 308.00" xmlns="http://www.w3.org/2000/svg" xmlns:xlink="http://www.w3.org/1999/xlink">
<g id="graph0" class="graph" transform="scale(1 1) rotate(0) translate(4 304)">
<title>G</title>
<polygon fill="#ffffff" stroke="transparent" points="-4,4 -4,-304 292,-304 292,4 -4,4"/>
<g id="clust1" class="cluster">
<title>cluster_0</title>
<polygon fill="#d3d3d3" stroke="#d3d3d3" points="118,-68.8 118,-292 280,-292 280,-68.8 118,-68.8"/>
</g>
<g id="clust2" class="cluster">
<title>cluster_1</title>
<polygon fill="#ffffff" stroke="#ffffff" points="129,-8 129,-48.8 271,-48.8 271,-8 129,-8"/>
</g>
<!-- app -->
<g id="node1" class="node">
<title>app</title>
<text text-anchor="start" x="10" y="-267.4" font-family="Helvetica,sans-Serif" font-size="14.00" fill="#000000">Application</text>
</g>
<!-- transport -->
<g id="node2" class="node">
<title>transport</title>
<text text-anchor="start" x="8" y="-206.6" font-family="Helvetica,sans-Serif" font-size="14.00" fill="#000000">Transport</text>
</g>
<!-- interledger -->
<g id="node3" class="node">
<title>interledger</title>
<text text-anchor="start" x="10" y="-145.8" font-family="Helvetica,sans-Serif" font-size="14.00" fill="#000000">Interledger</text>
</g>
<!-- link -->
<g id="node4" class="node">
<title>link</title>
<text text-anchor="start" x="10" y="-85" font-family="Helvetica,sans-Serif" font-size="14.00" fill="#000000">Link</text>
</g>
<!-- ledger -->
<g id="node5" class="node">
<title>ledger</title>
<text text-anchor="start" x="19" y="-24.2" font-family="Helvetica,sans-Serif" font-size="14.00" fill="#000000">Ledger</text>
</g>
<!-- app1 -->
<g id="node6" class="node">
<title>app1</title>
<polygon fill="#ffffff" stroke="#ffffff" points="267,-283.9008 213,-283.9008 213,-259.2992 267,-259.2992 267,-283.9008"/>
<text text-anchor="middle" x="240" y="-267.4" font-family="Helvetica,sans-Serif" font-size="14.00" fill="#000000">SPSP</text>
</g>
<!-- tr1 -->
<g id="node8" class="node">
<title>tr1</title>
<polygon fill="#add8e6" stroke="#add8e6" points="272.3303,-223.1008 197.6697,-223.1008 197.6697,-198.4992 272.3303,-198.4992 272.3303,-223.1008"/>
<text text-anchor="middle" x="235" y="-206.6" font-family="Helvetica,sans-Serif" font-size="14.00" fill="#000000">STREAM</text>
</g>
<!-- app1&#45;&#45;tr1 -->
<g id="edge1" class="edge">
<title>app1&#45;&#45;tr1</title>
<path fill="none" stroke="#000000" d="M238.9882,-259.2962C238.1321,-248.8865 236.91,-234.0258 236.0447,-223.504"/>
</g>
<!-- app2 -->
<g id="node7" class="node">
<title>app2</title>
<polygon fill="#ffffff" stroke="#ffffff" points="195,-283.9008 141,-283.9008 141,-259.2992 195,-259.2992 195,-283.9008"/>
<text text-anchor="middle" x="168" y="-267.4" font-family="Helvetica,sans-Serif" font-size="14.00" fill="#000000">...</text>
</g>
<!-- app2&#45;&#45;tr1 -->
<g id="edge2" class="edge">
<title>app2&#45;&#45;tr1</title>
<path fill="none" stroke="#000000" d="M181.5584,-259.2962C193.0297,-248.8865 209.4058,-234.0258 221.0005,-223.504"/>
</g>
<!-- im1 -->
<g id="node10" class="node">
<title>im1</title>
<polygon fill="#ffffff" stroke="#ffffff" points="226,-162.3008 172,-162.3008 172,-137.6992 226,-137.6992 226,-162.3008"/>
<text text-anchor="middle" x="199" y="-145.8" font-family="Helvetica,sans-Serif" font-size="14.00" fill="#000000">ILPv4</text>
</g>
<!-- tr1&#45;&#45;im1 -->
<g id="edge3" class="edge">
<title>tr1&#45;&#45;im1</title>
<path fill="none" stroke="#000000" d="M227.7149,-198.4962C221.5512,-188.0865 212.7521,-173.2258 206.5221,-162.704"/>
</g>
<!-- tr2 -->
<g id="node9" class="node">
<title>tr2</title>
<polygon fill="#ffffff" stroke="#ffffff" points="180,-223.1008 126,-223.1008 126,-198.4992 180,-198.4992 180,-223.1008"/>
<text text-anchor="middle" x="153" y="-206.6" font-family="Helvetica,sans-Serif" font-size="14.00" fill="#000000">...</text>
</g>
<!-- tr2&#45;&#45;im1 -->
<g id="edge4" class="edge">
<title>tr2&#45;&#45;im1</title>
<path fill="none" stroke="#000000" d="M162.3088,-198.4962C170.1846,-188.0865 181.4278,-173.2258 189.3884,-162.704"/>
</g>
<!-- link1 -->
<g id="node11" class="node">
<title>link1</title>
<polygon fill="#ffffff" stroke="#ffffff" points="191,-101.5008 137,-101.5008 137,-76.8992 191,-76.8992 191,-101.5008"/>
<text text-anchor="middle" x="164" y="-85" font-family="Helvetica,sans-Serif" font-size="14.00" fill="#000000">BTP</text>
</g>
<!-- im1&#45;&#45;link1 -->
<g id="edge5" class="edge">
<title>im1&#45;&#45;link1</title>
<path fill="none" stroke="#000000" d="M191.9172,-137.6962C185.9248,-127.2865 177.3701,-112.4258 171.3132,-101.904"/>
</g>
<!-- link2 -->
<g id="node12" class="node">
<title>link2</title>
<polygon fill="#ffffff" stroke="#ffffff" points="263,-101.5008 209,-101.5008 209,-76.8992 263,-76.8992 263,-101.5008"/>
<text text-anchor="middle" x="236" y="-85" font-family="Helvetica,sans-Serif" font-size="14.00" fill="#000000">...</text>
</g>
<!-- im1&#45;&#45;link2 -->
<g id="edge6" class="edge">
<title>im1&#45;&#45;link2</title>
<path fill="none" stroke="#000000" d="M206.4875,-137.6962C212.8224,-127.2865 221.8659,-112.4258 228.2689,-101.904"/>
</g>
<!-- ledger1 -->
<g id="node13" class="node">
<title>ledger1</title>
<polygon fill="none" stroke="#000000" points="191,-40.7008 137,-40.7008 137,-16.0992 191,-16.0992 191,-40.7008"/>
<text text-anchor="middle" x="164" y="-24.2" font-family="Helvetica,sans-Serif" font-size="14.00" fill="#000000">...</text>
</g>
<!-- link1&#45;&#45;ledger1 -->
<g id="edge7" class="edge">
<title>link1&#45;&#45;ledger1</title>
<path fill="none" stroke="#000000" d="M164,-76.8962C164,-66.4865 164,-51.6258 164,-41.104"/>
</g>
<!-- ledger3 -->
<g id="node14" class="node">
<title>ledger3</title>
<polygon fill="none" stroke="#000000" points="263,-40.7008 209,-40.7008 209,-16.0992 263,-16.0992 263,-40.7008"/>
<text text-anchor="middle" x="236" y="-24.2" font-family="Helvetica,sans-Serif" font-size="14.00" fill="#000000">...</text>
</g>
<!-- link2&#45;&#45;ledger3 -->
<g id="edge8" class="edge">
<title>link2&#45;&#45;ledger3</title>
<path fill="none" stroke="#000000" d="M236,-76.8962C236,-66.4865 236,-51.6258 236,-41.104"/>
</g>
</g>
</svg>
